solid OpenSCAD_Model
  facet normal 0 0 -1
    outer loop
      vertex -42.5 5.20475e-15 -3.5
      vertex -41.7678 1.76777 -3.5
      vertex -41.7678 -1.76777 -3.5
    endloop
  endfacet
  facet normal 0 0 -1
    outer loop
      vertex -41.7678 -1.76777 -3.5
      vertex -41.7678 1.76777 -3.5
      vertex -40 2.5 -3.5
    endloop
  endfacet
  facet normal 0 0 -1
    outer loop
      vertex -41.7678 -1.76777 -3.5
      vertex -40 2.5 -3.5
      vertex -19.7372 2.5 -3.5
    endloop
  endfacet
  facet normal 0 0 -1
    outer loop
      vertex -19.7372 2.5 -3.5
      vertex -19.563 4.15823 -3.5
      vertex -18.2709 8.13473 -3.5
    endloop
  endfacet
  facet normal 0 0 -1
    outer loop
      vertex -19.7372 2.5 -3.5
      vertex -18.2709 8.13473 -3.5
      vertex -16.1803 11.7557 -3.5
    endloop
  endfacet
  facet normal 0 0 -1
    outer loop
      vertex -19.7372 2.5 -3.5
      vertex -16.1803 11.7557 -3.5
      vertex -15.7591 12.2236 -3.5
    endloop
  endfacet
  facet normal 0 0 -1
    outer loop
      vertex -30.052 26.5165 -3.5
      vertex -30.7843 28.2843 -3.5
      vertex -15.7591 12.2236 -3.5
    endloop
  endfacet
  facet normal 0 0 -1
    outer loop
      vertex -15.7591 12.2236 -3.5
      vertex -30.7843 28.2843 -3.5
      vertex -30.052 30.052 -3.5
    endloop
  endfacet
  facet normal 0 0 -1
    outer loop
      vertex -15.7591 12.2236 -3.5
      vertex -30.052 30.052 -3.5
      vertex -28.2843 30.7843 -3.5
    endloop
  endfacet
  facet normal 0 0 -1
    outer loop
      vertex -15.7591 12.2236 -3.5
      vertex -28.2843 30.7843 -3.5
      vertex -26.5165 30.052 -3.5
    endloop
  endfacet
  facet normal 0 0 -1
    outer loop
      vertex -15.7591 12.2236 -3.5
      vertex -26.5165 30.052 -3.5
      vertex -12.1922 15.7278 -3.5
    endloop
  endfacet
  facet normal 0 0 -1
    outer loop
      vertex -15.7591 12.2236 -3.5
      vertex -12.1922 15.7278 -3.5
      vertex -19.7372 2.5 -3.5
    endloop
  endfacet
  facet normal 0 0 -1
    outer loop
      vertex -19.7372 2.5 -3.5
      vertex -12.1922 15.7278 -3.5
      vertex -10 17.3205 -3.5
    endloop
  endfacet
  facet normal 0 0 -1
    outer loop
      vertex -19.7372 2.5 -3.5
      vertex -10 17.3205 -3.5
      vertex -6.18034 19.0211 -3.5
    endloop
  endfacet
  facet normal 0 0 -1
    outer loop
      vertex -19.7372 2.5 -3.5
      vertex -6.18034 19.0211 -3.5
      vertex -2.5 19.8034 -3.5
    endloop
  endfacet
  facet normal 0 0 -1
    outer loop
      vertex -2.5 40 -3.5
      vertex -1.76777 41.7678 -3.5
      vertex -2.5 19.8034 -3.5
    endloop
  endfacet
  facet normal 0 0 -1
    outer loop
      vertex -2.5 19.8034 -3.5
      vertex -1.76777 41.7678 -3.5
      vertex 2.60237e-15 42.5 -3.5
    endloop
  endfacet
  facet normal 0 0 -1
    outer loop
      vertex -2.5 19.8034 -3.5
      vertex 2.60237e-15 42.5 -3.5
      vertex 1.76777 41.7678 -3.5
    endloop
  endfacet
  facet normal 0 0 -1
    outer loop
      vertex -2.5 19.8034 -3.5
      vertex 1.76777 41.7678 -3.5
      vertex 2.5 40 -3.5
    endloop
  endfacet
  facet normal 0 0 -1
    outer loop
      vertex -2.5 19.8034 -3.5
      vertex 2.5 40 -3.5
      vertex 2.5 19.8034 -3.5
    endloop
  endfacet
  facet normal 0 0 -1
    outer loop
      vertex -2.5 19.8034 -3.5
      vertex 2.5 19.8034 -3.5
      vertex -19.7372 2.5 -3.5
    endloop
  endfacet
  facet normal 0 0 -1
    outer loop
      vertex -19.7372 2.5 -3.5
      vertex 2.5 19.8034 -3.5
      vertex 6.18034 19.0211 -3.5
    endloop
  endfacet
  facet normal 0 0 -1
    outer loop
      vertex -19.7372 2.5 -3.5
      vertex 6.18034 19.0211 -3.5
      vertex 10 17.3205 -3.5
    endloop
  endfacet
  facet normal 0 0 -1
    outer loop
      vertex -19.7372 2.5 -3.5
      vertex 10 17.3205 -3.5
      vertex 12.1922 15.7278 -3.5
    endloop
  endfacet
  facet normal 0 0 -1
    outer loop
      vertex 26.5165 30.052 -3.5
      vertex 28.2843 30.7843 -3.5
      vertex 12.1922 15.7278 -3.5
    endloop
  endfacet
  facet normal 0 0 -1
    outer loop
      vertex 12.1922 15.7278 -3.5
      vertex 28.2843 30.7843 -3.5
      vertex 30.052 30.052 -3.5
    endloop
  endfacet
  facet normal 0 0 -1
    outer loop
      vertex 12.1922 15.7278 -3.5
      vertex 30.052 30.052 -3.5
      vertex 30.7843 28.2843 -3.5
    endloop
  endfacet
  facet normal 0 0 -1
    outer loop
      vertex 12.1922 15.7278 -3.5
      vertex 30.7843 28.2843 -3.5
      vertex 30.052 26.5165 -3.5
    endloop
  endfacet
  facet normal 0 0 -1
    outer loop
      vertex 12.1922 15.7278 -3.5
      vertex 30.052 26.5165 -3.5
      vertex 15.7591 12.2236 -3.5
    endloop
  endfacet
  facet normal 0 0 -1
    outer loop
      vertex 12.1922 15.7278 -3.5
      vertex 15.7591 12.2236 -3.5
      vertex -19.7372 2.5 -3.5
    endloop
  endfacet
  facet normal 0 0 -1
    outer loop
      vertex -19.7372 2.5 -3.5
      vertex 15.7591 12.2236 -3.5
      vertex 16.1803 11.7557 -3.5
    endloop
  endfacet
  facet normal 0 0 -1
    outer loop
      vertex -19.7372 2.5 -3.5
      vertex 16.1803 11.7557 -3.5
      vertex 18.2709 8.13473 -3.5
    endloop
  endfacet
  facet normal 0 0 -1
    outer loop
      vertex -19.7372 2.5 -3.5
      vertex 18.2709 8.13473 -3.5
      vertex -41.7678 -1.76777 -3.5
    endloop
  endfacet
  facet normal 0 0 -1
    outer loop
      vertex -41.7678 -1.76777 -3.5
      vertex 18.2709 8.13473 -3.5
      vertex 19.563 4.15823 -3.5
    endloop
  endfacet
  facet normal 0 0 -1
    outer loop
      vertex 1.24698 1.56366 -3.5
      vertex 19.563 4.15823 -3.5
      vertex 19.7372 2.5 -3.5
    endloop
  endfacet
  facet normal 0 0 -1
    outer loop
      vertex 1.24698 -1.56366 -3.5
      vertex 41.7678 -1.76777 -3.5
      vertex -0.445042 -1.94986 -3.5
    endloop
  endfacet
  facet normal 0 0 -1
    outer loop
      vertex 1.24698 -1.56366 -3.5
      vertex 42.5 -1.04095e-14 -3.5
      vertex 41.7678 -1.76777 -3.5
    endloop
  endfacet
  facet normal 0 0 -1
    outer loop
      vertex -0.445042 -1.94986 -3.5
      vertex 41.7678 -1.76777 -3.5
      vertex 40 -2.5 -3.5
    endloop
  endfacet
  facet normal 0 0 -1
    outer loop
      vertex -19.7372 -2.5 -3.5
      vertex 19.7372 -2.5 -3.5
      vertex 19.563 -4.15823 -3.5
    endloop
  endfacet
  facet normal 0 0 -1
    outer loop
      vertex -19.563 -4.15823 -3.5
      vertex 18.2709 -8.13473 -3.5
      vertex 16.1803 -11.7557 -3.5
    endloop
  endfacet
  facet normal 0 0 -1
    outer loop
      vertex -19.7372 -2.5 -3.5
      vertex 18.2709 -8.13473 -3.5
      vertex -19.563 -4.15823 -3.5
    endloop
  endfacet
  facet normal 0 0 -1
    outer loop
      vertex 2.5 -40 -3.5
      vertex -2.5 -19.8034 -3.5
      vertex 2.5 -19.8034 -3.5
    endloop
  endfacet
  facet normal 0 0 -1
    outer loop
      vertex 26.5165 -30.052 -3.5
      vertex 30.052 -30.052 -3.5
      vertex 28.2843 -30.7843 -3.5
    endloop
  endfacet
  facet normal 0 0 -1
    outer loop
      vertex -2.5 -19.8034 -3.5
      vertex 2.5 -40 -3.5
      vertex 1.76777 -41.7678 -3.5
    endloop
  endfacet
  facet normal 0 0 -1
    outer loop
      vertex -2.5 -19.8034 -3.5
      vertex 1.76777 -41.7678 -3.5
      vertex -2.5 -40 -3.5
    endloop
  endfacet
  facet normal 0 0 -1
    outer loop
      vertex 15.7591 -12.2236 -3.5
      vertex 30.052 -26.5165 -3.5
      vertex 12.1922 -15.7278 -3.5
    endloop
  endfacet
  facet normal 0 0 -1
    outer loop
      vertex 2.5 -19.8034 -3.5
      vertex -16.1803 -11.7557 -3.5
      vertex 6.18034 -19.0211 -3.5
    endloop
  endfacet
  facet normal 0 0 -1
    outer loop
      vertex -19.563 -4.15823 -3.5
      vertex 16.1803 -11.7557 -3.5
      vertex 15.7591 -12.2236 -3.5
    endloop
  endfacet
  facet normal 0 0 -1
    outer loop
      vertex -2.5 -40 -3.5
      vertex -7.80712e-15 -42.5 -3.5
      vertex -1.76777 -41.7678 -3.5
    endloop
  endfacet
  facet normal 0 0 -1
    outer loop
      vertex -15.7591 -12.2236 -3.5
      vertex -26.5165 -30.052 -3.5
      vertex -30.052 -26.5165 -3.5
    endloop
  endfacet
  facet normal 0 0 -1
    outer loop
      vertex -2.5 -40 -3.5
      vertex 1.76777 -41.7678 -3.5
      vertex -7.80712e-15 -42.5 -3.5
    endloop
  endfacet
  facet normal 0 0 -1
    outer loop
      vertex -30.052 -26.5165 -3.5
      vertex -30.052 -30.052 -3.5
      vertex -30.7843 -28.2843 -3.5
    endloop
  endfacet
  facet normal 0 0 -1
    outer loop
      vertex -12.1922 -15.7278 -3.5
      vertex -6.18034 -19.0211 -3.5
      vertex -10 -17.3205 -3.5
    endloop
  endfacet
  facet normal 0 0 -1
    outer loop
      vertex -12.1922 -15.7278 -3.5
      vertex -2.5 -19.8034 -3.5
      vertex -6.18034 -19.0211 -3.5
    endloop
  endfacet
  facet normal 0 0 -1
    outer loop
      vertex -30.052 -26.5165 -3.5
      vertex -28.2843 -30.7843 -3.5
      vertex -30.052 -30.052 -3.5
    endloop
  endfacet
  facet normal 0 0 -1
    outer loop
      vertex -15.7591 -12.2236 -3.5
      vertex 2.5 -19.8034 -3.5
      vertex -2.5 -19.8034 -3.5
    endloop
  endfacet
  facet normal 0 0 -1
    outer loop
      vertex -15.7591 -12.2236 -3.5
      vertex -2.5 -19.8034 -3.5
      vertex -12.1922 -15.7278 -3.5
    endloop
  endfacet
  facet normal 0 0 -1
    outer loop
      vertex -15.7591 -12.2236 -3.5
      vertex -12.1922 -15.7278 -3.5
      vertex -26.5165 -30.052 -3.5
    endloop
  endfacet
  facet normal 0 0 -1
    outer loop
      vertex -26.5165 -30.052 -3.5
      vertex -28.2843 -30.7843 -3.5
      vertex -30.052 -26.5165 -3.5
    endloop
  endfacet
  facet normal 0 0 -1
    outer loop
      vertex -18.2709 -8.13473 -3.5
      vertex 10 -17.3205 -3.5
      vertex 6.18034 -19.0211 -3.5
    endloop
  endfacet
  facet normal 0 0 -1
    outer loop
      vertex -1.80194 0.867767 -3.5
      vertex -41.7678 -1.76777 -3.5
      vertex -0.445042 1.94986 -3.5
    endloop
  endfacet
  facet normal 0 0 -1
    outer loop
      vertex 12.1922 -15.7278 -3.5
      vertex 10 -17.3205 -3.5
      vertex -18.2709 -8.13473 -3.5
    endloop
  endfacet
  facet normal 0 0 -1
    outer loop
      vertex -19.7372 -2.5 -3.5
      vertex 19.563 -4.15823 -3.5
      vertex 18.2709 -8.13473 -3.5
    endloop
  endfacet
  facet normal 0 0 -1
    outer loop
      vertex -41.7678 -1.76777 -3.5
      vertex 19.7372 -2.5 -3.5
      vertex -19.7372 -2.5 -3.5
    endloop
  endfacet
  facet normal 0 0 -1
    outer loop
      vertex -40 -2.5 -3.5
      vertex -41.7678 -1.76777 -3.5
      vertex -19.7372 -2.5 -3.5
    endloop
  endfacet
  facet normal 0 0 -1
    outer loop
      vertex -18.2709 -8.13473 -3.5
      vertex 6.18034 -19.0211 -3.5
      vertex -16.1803 -11.7557 -3.5
    endloop
  endfacet
  facet normal 0 0 -1
    outer loop
      vertex -1.80194 -0.867767 -3.5
      vertex -41.7678 -1.76777 -3.5
      vertex -1.80194 0.867767 -3.5
    endloop
  endfacet
  facet normal 0 0 -1
    outer loop
      vertex 1.24698 1.56366 -3.5
      vertex 19.7372 2.5 -3.5
      vertex 40 2.5 -3.5
    endloop
  endfacet
  facet normal 0 0 -1
    outer loop
      vertex 1.24698 1.56366 -3.5
      vertex 41.7678 1.76777 -3.5
      vertex 2 0 -3.5
    endloop
  endfacet
  facet normal 0 0 -1
    outer loop
      vertex 2 0 -3.5
      vertex 41.7678 1.76777 -3.5
      vertex 42.5 -1.04095e-14 -3.5
    endloop
  endfacet
  facet normal 0 0 -1
    outer loop
      vertex -41.7678 -1.76777 -3.5
      vertex -0.445042 -1.94986 -3.5
      vertex 40 -2.5 -3.5
    endloop
  endfacet
  facet normal 0 0 -1
    outer loop
      vertex 2 0 -3.5
      vertex 42.5 -1.04095e-14 -3.5
      vertex 1.24698 -1.56366 -3.5
    endloop
  endfacet
  facet normal 0 0 -1
    outer loop
      vertex 1.24698 1.56366 -3.5
      vertex 40 2.5 -3.5
      vertex 41.7678 1.76777 -3.5
    endloop
  endfacet
  facet normal 0 0 -1
    outer loop
      vertex -0.445042 -1.94986 -3.5
      vertex -41.7678 -1.76777 -3.5
      vertex -1.80194 -0.867767 -3.5
    endloop
  endfacet
  facet normal 0 0 -1
    outer loop
      vertex -0.445042 1.94986 -3.5
      vertex 19.563 4.15823 -3.5
      vertex 1.24698 1.56366 -3.5
    endloop
  endfacet
  facet normal 0 0 -1
    outer loop
      vertex -41.7678 -1.76777 -3.5
      vertex 19.563 4.15823 -3.5
      vertex -0.445042 1.94986 -3.5
    endloop
  endfacet
  facet normal 0 0 -1
    outer loop
      vertex 19.7372 -2.5 -3.5
      vertex -41.7678 -1.76777 -3.5
      vertex 40 -2.5 -3.5
    endloop
  endfacet
  facet normal 0 0 -1
    outer loop
      vertex 12.1922 -15.7278 -3.5
      vertex 30.052 -26.5165 -3.5
      vertex 30.7843 -28.2843 -3.5
    endloop
  endfacet
  facet normal 0 0 -1
    outer loop
      vertex 12.1922 -15.7278 -3.5
      vertex 30.7843 -28.2843 -3.5
      vertex 30.052 -30.052 -3.5
    endloop
  endfacet
  facet normal 0 0 -1
    outer loop
      vertex 12.1922 -15.7278 -3.5
      vertex 30.052 -30.052 -3.5
      vertex 26.5165 -30.052 -3.5
    endloop
  endfacet
  facet normal 0 0 -1
    outer loop
      vertex 2.5 -19.8034 -3.5
      vertex -15.7591 -12.2236 -3.5
      vertex -16.1803 -11.7557 -3.5
    endloop
  endfacet
  facet normal 0 0 -1
    outer loop
      vertex -19.563 -4.15823 -3.5
      vertex 12.1922 -15.7278 -3.5
      vertex -18.2709 -8.13473 -3.5
    endloop
  endfacet
  facet normal 0 0 -1
    outer loop
      vertex -19.563 -4.15823 -3.5
      vertex 15.7591 -12.2236 -3.5
      vertex 12.1922 -15.7278 -3.5
    endloop
  endfacet
  facet normal -0.92388 0.382683 0
    outer loop
      vertex -42.5 5.20475e-15 -3.5
      vertex -42.5 5.20475e-15 3.5
      vertex -41.7678 1.76777 -3.5
    endloop
  endfacet
  facet normal -0.92388 0.382683 0
    outer loop
      vertex -41.7678 1.76777 -3.5
      vertex -42.5 5.20475e-15 3.5
      vertex -41.7678 1.76777 3.5
    endloop
  endfacet
  facet normal -0.92388 -0.382683 0
    outer loop
      vertex -42.5 5.20475e-15 -3.5
      vertex -41.7678 -1.76777 -3.5
      vertex -42.5 5.20475e-15 3.5
    endloop
  endfacet
  facet normal -0.92388 -0.382683 0
    outer loop
      vertex -42.5 5.20475e-15 3.5
      vertex -41.7678 -1.76777 -3.5
      vertex -41.7678 -1.76777 3.5
    endloop
  endfacet
  facet normal -0.382683 -0.92388 0
    outer loop
      vertex -41.7678 -1.76777 3.5
      vertex -41.7678 -1.76777 -3.5
      vertex -40 -2.5 -3.5
    endloop
  endfacet
  facet normal -0.382683 -0.92388 0
    outer loop
      vertex -40 -2.5 3.5
      vertex -41.7678 -1.76777 3.5
      vertex -40 -2.5 -3.5
    endloop
  endfacet
  facet normal -1.22465e-16 -1 0
    outer loop
      vertex -40 -2.5 3.5
      vertex -40 -2.5 -3.5
      vertex -19.7372 -2.5 -3.5
    endloop
  endfacet
  facet normal -1.22465e-16 -1 0
    outer loop
      vertex -19.7372 -2.5 3.5
      vertex -40 -2.5 3.5
      vertex -19.7372 -2.5 -3.5
    endloop
  endfacet
  facet normal -0.994522 -0.104528 0
    outer loop
      vertex -19.7372 -2.5 -3.5
      vertex -19.563 -4.15823 -3.5
      vertex -19.7372 -2.5 3.5
    endloop
  endfacet
  facet normal -0.994522 -0.104528 0
    outer loop
      vertex -19.7372 -2.5 3.5
      vertex -19.563 -4.15823 -3.5
      vertex -19.563 -4.15823 3.5
    endloop
  endfacet
  facet normal -0.951057 -0.309017 0
    outer loop
      vertex -19.563 -4.15823 -3.5
      vertex -18.2709 -8.13473 -3.5
      vertex -19.563 -4.15823 3.5
    endloop
  endfacet
  facet normal -0.951057 -0.309017 0
    outer loop
      vertex -19.563 -4.15823 3.5
      vertex -18.2709 -8.13473 -3.5
      vertex -18.2709 -8.13473 3.5
    endloop
  endfacet
  facet normal -0.866025 -0.5 0
    outer loop
      vertex -18.2709 -8.13473 -3.5
      vertex -16.1803 -11.7557 -3.5
      vertex -18.2709 -8.13473 3.5
    endloop
  endfacet
  facet normal -0.866025 -0.5 0
    outer loop
      vertex -18.2709 -8.13473 3.5
      vertex -16.1803 -11.7557 -3.5
      vertex -16.1803 -11.7557 3.5
    endloop
  endfacet
  facet normal -0.743145 -0.669131 0
    outer loop
      vertex -16.1803 -11.7557 -3.5
      vertex -15.7591 -12.2236 -3.5
      vertex -16.1803 -11.7557 3.5
    endloop
  endfacet
  facet normal -0.743145 -0.669131 0
    outer loop
      vertex -16.1803 -11.7557 3.5
      vertex -15.7591 -12.2236 -3.5
      vertex -15.7591 -12.2236 3.5
    endloop
  endfacet
  facet normal -0.707107 0.707107 0
    outer loop
      vertex -30.052 -26.5165 -3.5
      vertex -30.052 -26.5165 3.5
      vertex -15.7591 -12.2236 -3.5
    endloop
  endfacet
  facet normal -0.707107 0.707107 0
    outer loop
      vertex -15.7591 -12.2236 -3.5
      vertex -30.052 -26.5165 3.5
      vertex -15.7591 -12.2236 3.5
    endloop
  endfacet
  facet normal -0.92388 0.382683 0
    outer loop
      vertex -30.7843 -28.2843 -3.5
      vertex -30.7843 -28.2843 3.5
      vertex -30.052 -26.5165 -3.5
    endloop
  endfacet
  facet normal -0.92388 0.382683 0
    outer loop
      vertex -30.052 -26.5165 -3.5
      vertex -30.7843 -28.2843 3.5
      vertex -30.052 -26.5165 3.5
    endloop
  endfacet
  facet normal -0.92388 -0.382683 0
    outer loop
      vertex -30.7843 -28.2843 -3.5
      vertex -30.052 -30.052 -3.5
      vertex -30.7843 -28.2843 3.5
    endloop
  endfacet
  facet normal -0.92388 -0.382683 0
    outer loop
      vertex -30.7843 -28.2843 3.5
      vertex -30.052 -30.052 -3.5
      vertex -30.052 -30.052 3.5
    endloop
  endfacet
  facet normal -0.382683 -0.92388 0
    outer loop
      vertex -30.052 -30.052 3.5
      vertex -30.052 -30.052 -3.5
      vertex -28.2843 -30.7843 -3.5
    endloop
  endfacet
  facet normal -0.382683 -0.92388 0
    outer loop
      vertex -28.2843 -30.7843 3.5
      vertex -30.052 -30.052 3.5
      vertex -28.2843 -30.7843 -3.5
    endloop
  endfacet
  facet normal 0.382683 -0.92388 0
    outer loop
      vertex -28.2843 -30.7843 3.5
      vertex -28.2843 -30.7843 -3.5
      vertex -26.5165 -30.052 -3.5
    endloop
  endfacet
  facet normal 0.382683 -0.92388 0
    outer loop
      vertex -26.5165 -30.052 3.5
      vertex -28.2843 -30.7843 3.5
      vertex -26.5165 -30.052 -3.5
    endloop
  endfacet
  facet normal 0.707107 -0.707107 0
    outer loop
      vertex -26.5165 -30.052 3.5
      vertex -26.5165 -30.052 -3.5
      vertex -12.1922 -15.7278 -3.5
    endloop
  endfacet
  facet normal 0.707107 -0.707107 0
    outer loop
      vertex -12.1922 -15.7278 3.5
      vertex -26.5165 -30.052 3.5
      vertex -12.1922 -15.7278 -3.5
    endloop
  endfacet
  facet normal -0.587785 -0.809017 0
    outer loop
      vertex -12.1922 -15.7278 3.5
      vertex -12.1922 -15.7278 -3.5
      vertex -10 -17.3205 -3.5
    endloop
  endfacet
  facet normal -0.587785 -0.809017 0
    outer loop
      vertex -10 -17.3205 3.5
      vertex -12.1922 -15.7278 3.5
      vertex -10 -17.3205 -3.5
    endloop
  endfacet
  facet normal -0.406737 -0.913545 0
    outer loop
      vertex -10 -17.3205 3.5
      vertex -10 -17.3205 -3.5
      vertex -6.18034 -19.0211 -3.5
    endloop
  endfacet
  facet normal -0.406737 -0.913545 0
    outer loop
      vertex -6.18034 -19.0211 3.5
      vertex -10 -17.3205 3.5
      vertex -6.18034 -19.0211 -3.5
    endloop
  endfacet
  facet normal -0.207912 -0.978148 0
    outer loop
      vertex -6.18034 -19.0211 3.5
      vertex -6.18034 -19.0211 -3.5
      vertex -2.5 -19.8034 -3.5
    endloop
  endfacet
  facet normal -0.207912 -0.978148 0
    outer loop
      vertex -2.5 -19.8034 3.5
      vertex -6.18034 -19.0211 3.5
      vertex -2.5 -19.8034 -3.5
    endloop
  endfacet
  facet normal -1 6.12323e-17 0
    outer loop
      vertex -2.5 -40 -3.5
      vertex -2.5 -40 3.5
      vertex -2.5 -19.8034 -3.5
    endloop
  endfacet
  facet normal -1 6.12323e-17 0
    outer loop
      vertex -2.5 -19.8034 -3.5
      vertex -2.5 -40 3.5
      vertex -2.5 -19.8034 3.5
    endloop
  endfacet
  facet normal -0.92388 -0.382683 0
    outer loop
      vertex -2.5 -40 -3.5
      vertex -1.76777 -41.7678 -3.5
      vertex -2.5 -40 3.5
    endloop
  endfacet
  facet normal -0.92388 -0.382683 0
    outer loop
      vertex -2.5 -40 3.5
      vertex -1.76777 -41.7678 -3.5
      vertex -1.76777 -41.7678 3.5
    endloop
  endfacet
  facet normal -0.382683 -0.92388 0
    outer loop
      vertex -1.76777 -41.7678 3.5
      vertex -1.76777 -41.7678 -3.5
      vertex -7.80712e-15 -42.5 -3.5
    endloop
  endfacet
  facet normal -0.382683 -0.92388 0
    outer loop
      vertex -7.80712e-15 -42.5 3.5
      vertex -1.76777 -41.7678 3.5
      vertex -7.80712e-15 -42.5 -3.5
    endloop
  endfacet
  facet normal 0.382683 -0.92388 0
    outer loop
      vertex -7.80712e-15 -42.5 3.5
      vertex -7.80712e-15 -42.5 -3.5
      vertex 1.76777 -41.7678 -3.5
    endloop
  endfacet
  facet normal 0.382683 -0.92388 0
    outer loop
      vertex 1.76777 -41.7678 3.5
      vertex -7.80712e-15 -42.5 3.5
      vertex 1.76777 -41.7678 -3.5
    endloop
  endfacet
  facet normal 0.92388 -0.382683 0
    outer loop
      vertex 1.76777 -41.7678 3.5
      vertex 1.76777 -41.7678 -3.5
      vertex 2.5 -40 -3.5
    endloop
  endfacet
  facet normal 0.92388 -0.382683 0
    outer loop
      vertex 2.5 -40 3.5
      vertex 1.76777 -41.7678 3.5
      vertex 2.5 -40 -3.5
    endloop
  endfacet
  facet normal 1 -6.12323e-17 0
    outer loop
      vertex 2.5 -40 3.5
      vertex 2.5 -40 -3.5
      vertex 2.5 -19.8034 -3.5
    endloop
  endfacet
  facet normal 1 -6.12323e-17 0
    outer loop
      vertex 2.5 -19.8034 3.5
      vertex 2.5 -40 3.5
      vertex 2.5 -19.8034 -3.5
    endloop
  endfacet
  facet normal 0.207912 -0.978148 0
    outer loop
      vertex 2.5 -19.8034 3.5
      vertex 2.5 -19.8034 -3.5
      vertex 6.18034 -19.0211 -3.5
    endloop
  endfacet
  facet normal 0.207912 -0.978148 0
    outer loop
      vertex 6.18034 -19.0211 3.5
      vertex 2.5 -19.8034 3.5
      vertex 6.18034 -19.0211 -3.5
    endloop
  endfacet
  facet normal 0.406737 -0.913545 0
    outer loop
      vertex 6.18034 -19.0211 3.5
      vertex 6.18034 -19.0211 -3.5
      vertex 10 -17.3205 -3.5
    endloop
  endfacet
  facet normal 0.406737 -0.913545 0
    outer loop
      vertex 10 -17.3205 3.5
      vertex 6.18034 -19.0211 3.5
      vertex 10 -17.3205 -3.5
    endloop
  endfacet
  facet normal 0.587785 -0.809017 0
    outer loop
      vertex 10 -17.3205 3.5
      vertex 10 -17.3205 -3.5
      vertex 12.1922 -15.7278 -3.5
    endloop
  endfacet
  facet normal 0.587785 -0.809017 0
    outer loop
      vertex 12.1922 -15.7278 3.5
      vertex 10 -17.3205 3.5
      vertex 12.1922 -15.7278 -3.5
    endloop
  endfacet
  facet normal -0.707107 -0.707107 0
    outer loop
      vertex 12.1922 -15.7278 -3.5
      vertex 26.5165 -30.052 -3.5
      vertex 12.1922 -15.7278 3.5
    endloop
  endfacet
  facet normal -0.707107 -0.707107 0
    outer loop
      vertex 12.1922 -15.7278 3.5
      vertex 26.5165 -30.052 -3.5
      vertex 26.5165 -30.052 3.5
    endloop
  endfacet
  facet normal -0.382683 -0.92388 0
    outer loop
      vertex 26.5165 -30.052 3.5
      vertex 26.5165 -30.052 -3.5
      vertex 28.2843 -30.7843 -3.5
    endloop
  endfacet
  facet normal -0.382683 -0.92388 0
    outer loop
      vertex 28.2843 -30.7843 3.5
      vertex 26.5165 -30.052 3.5
      vertex 28.2843 -30.7843 -3.5
    endloop
  endfacet
  facet normal 0.382683 -0.92388 0
    outer loop
      vertex 28.2843 -30.7843 3.5
      vertex 28.2843 -30.7843 -3.5
      vertex 30.052 -30.052 -3.5
    endloop
  endfacet
  facet normal 0.382683 -0.92388 0
    outer loop
      vertex 30.052 -30.052 3.5
      vertex 28.2843 -30.7843 3.5
      vertex 30.052 -30.052 -3.5
    endloop
  endfacet
  facet normal 0.92388 -0.382683 0
    outer loop
      vertex 30.052 -30.052 3.5
      vertex 30.052 -30.052 -3.5
      vertex 30.7843 -28.2843 -3.5
    endloop
  endfacet
  facet normal 0.92388 -0.382683 0
    outer loop
      vertex 30.7843 -28.2843 3.5
      vertex 30.052 -30.052 3.5
      vertex 30.7843 -28.2843 -3.5
    endloop
  endfacet
  facet normal 0.92388 0.382683 0
    outer loop
      vertex 30.7843 -28.2843 -3.5
      vertex 30.052 -26.5165 -3.5
      vertex 30.052 -26.5165 3.5
    endloop
  endfacet
  facet normal 0.92388 0.382683 0
    outer loop
      vertex 30.7843 -28.2843 3.5
      vertex 30.7843 -28.2843 -3.5
      vertex 30.052 -26.5165 3.5
    endloop
  endfacet
  facet normal 0.707107 0.707107 0
    outer loop
      vertex 30.052 -26.5165 -3.5
      vertex 15.7591 -12.2236 -3.5
      vertex 15.7591 -12.2236 3.5
    endloop
  endfacet
  facet normal 0.707107 0.707107 0
    outer loop
      vertex 30.052 -26.5165 3.5
      vertex 30.052 -26.5165 -3.5
      vertex 15.7591 -12.2236 3.5
    endloop
  endfacet
  facet normal 0.743145 -0.669131 0
    outer loop
      vertex 15.7591 -12.2236 3.5
      vertex 15.7591 -12.2236 -3.5
      vertex 16.1803 -11.7557 -3.5
    endloop
  endfacet
  facet normal 0.743145 -0.669131 0
    outer loop
      vertex 16.1803 -11.7557 3.5
      vertex 15.7591 -12.2236 3.5
      vertex 16.1803 -11.7557 -3.5
    endloop
  endfacet
  facet normal 0.866025 -0.5 0
    outer loop
      vertex 16.1803 -11.7557 3.5
      vertex 16.1803 -11.7557 -3.5
      vertex 18.2709 -8.13473 -3.5
    endloop
  endfacet
  facet normal 0.866025 -0.5 0
    outer loop
      vertex 18.2709 -8.13473 3.5
      vertex 16.1803 -11.7557 3.5
      vertex 18.2709 -8.13473 -3.5
    endloop
  endfacet
  facet normal 0.951057 -0.309017 0
    outer loop
      vertex 18.2709 -8.13473 3.5
      vertex 18.2709 -8.13473 -3.5
      vertex 19.563 -4.15823 -3.5
    endloop
  endfacet
  facet normal 0.951057 -0.309017 0
    outer loop
      vertex 19.563 -4.15823 3.5
      vertex 18.2709 -8.13473 3.5
      vertex 19.563 -4.15823 -3.5
    endloop
  endfacet
  facet normal 0.994522 -0.104528 0
    outer loop
      vertex 19.563 -4.15823 3.5
      vertex 19.563 -4.15823 -3.5
      vertex 19.7372 -2.5 -3.5
    endloop
  endfacet
  facet normal 0.994522 -0.104528 0
    outer loop
      vertex 19.7372 -2.5 3.5
      vertex 19.563 -4.15823 3.5
      vertex 19.7372 -2.5 -3.5
    endloop
  endfacet
  facet normal -1.22465e-16 -1 0
    outer loop
      vertex 19.7372 -2.5 3.5
      vertex 19.7372 -2.5 -3.5
      vertex 40 -2.5 -3.5
    endloop
  endfacet
  facet normal -1.22465e-16 -1 0
    outer loop
      vertex 40 -2.5 3.5
      vertex 19.7372 -2.5 3.5
      vertex 40 -2.5 -3.5
    endloop
  endfacet
  facet normal 0.382683 -0.92388 0
    outer loop
      vertex 40 -2.5 3.5
      vertex 40 -2.5 -3.5
      vertex 41.7678 -1.76777 -3.5
    endloop
  endfacet
  facet normal 0.382683 -0.92388 0
    outer loop
      vertex 41.7678 -1.76777 3.5
      vertex 40 -2.5 3.5
      vertex 41.7678 -1.76777 -3.5
    endloop
  endfacet
  facet normal 0.92388 -0.382683 0
    outer loop
      vertex 41.7678 -1.76777 3.5
      vertex 41.7678 -1.76777 -3.5
      vertex 42.5 -1.04095e-14 -3.5
    endloop
  endfacet
  facet normal 0.92388 -0.382683 0
    outer loop
      vertex 42.5 -1.04095e-14 3.5
      vertex 41.7678 -1.76777 3.5
      vertex 42.5 -1.04095e-14 -3.5
    endloop
  endfacet
  facet normal 0.92388 0.382683 0
    outer loop
      vertex 42.5 -1.04095e-14 -3.5
      vertex 41.7678 1.76777 -3.5
      vertex 41.7678 1.76777 3.5
    endloop
  endfacet
  facet normal 0.92388 0.382683 0
    outer loop
      vertex 42.5 -1.04095e-14 3.5
      vertex 42.5 -1.04095e-14 -3.5
      vertex 41.7678 1.76777 3.5
    endloop
  endfacet
  facet normal 0.382683 0.92388 0
    outer loop
      vertex 40 2.5 -3.5
      vertex 40 2.5 3.5
      vertex 41.7678 1.76777 -3.5
    endloop
  endfacet
  facet normal 0.382683 0.92388 0
    outer loop
      vertex 41.7678 1.76777 -3.5
      vertex 40 2.5 3.5
      vertex 41.7678 1.76777 3.5
    endloop
  endfacet
  facet normal 1.22465e-16 1 0
    outer loop
      vertex 19.7372 2.5 -3.5
      vertex 19.7372 2.5 3.5
      vertex 40 2.5 -3.5
    endloop
  endfacet
  facet normal 1.22465e-16 1 0
    outer loop
      vertex 40 2.5 -3.5
      vertex 19.7372 2.5 3.5
      vertex 40 2.5 3.5
    endloop
  endfacet
  facet normal 0.994522 0.104528 0
    outer loop
      vertex 19.7372 2.5 -3.5
      vertex 19.563 4.15823 -3.5
      vertex 19.563 4.15823 3.5
    endloop
  endfacet
  facet normal 0.994522 0.104528 0
    outer loop
      vertex 19.7372 2.5 3.5
      vertex 19.7372 2.5 -3.5
      vertex 19.563 4.15823 3.5
    endloop
  endfacet
  facet normal 0.951057 0.309017 0
    outer loop
      vertex 19.563 4.15823 -3.5
      vertex 18.2709 8.13473 -3.5
      vertex 18.2709 8.13473 3.5
    endloop
  endfacet
  facet normal 0.951057 0.309017 0
    outer loop
      vertex 19.563 4.15823 3.5
      vertex 19.563 4.15823 -3.5
      vertex 18.2709 8.13473 3.5
    endloop
  endfacet
  facet normal 0.866025 0.5 0
    outer loop
      vertex 18.2709 8.13473 -3.5
      vertex 16.1803 11.7557 -3.5
      vertex 16.1803 11.7557 3.5
    endloop
  endfacet
  facet normal 0.866025 0.5 0
    outer loop
      vertex 18.2709 8.13473 3.5
      vertex 18.2709 8.13473 -3.5
      vertex 16.1803 11.7557 3.5
    endloop
  endfacet
  facet normal 0.743145 0.669131 0
    outer loop
      vertex 16.1803 11.7557 -3.5
      vertex 15.7591 12.2236 -3.5
      vertex 15.7591 12.2236 3.5
    endloop
  endfacet
  facet normal 0.743145 0.669131 0
    outer loop
      vertex 16.1803 11.7557 3.5
      vertex 16.1803 11.7557 -3.5
      vertex 15.7591 12.2236 3.5
    endloop
  endfacet
  facet normal 0.707107 -0.707107 0
    outer loop
      vertex 15.7591 12.2236 3.5
      vertex 15.7591 12.2236 -3.5
      vertex 30.052 26.5165 -3.5
    endloop
  endfacet
  facet normal 0.707107 -0.707107 0
    outer loop
      vertex 30.052 26.5165 3.5
      vertex 15.7591 12.2236 3.5
      vertex 30.052 26.5165 -3.5
    endloop
  endfacet
  facet normal 0.92388 -0.382683 0
    outer loop
      vertex 30.052 26.5165 3.5
      vertex 30.052 26.5165 -3.5
      vertex 30.7843 28.2843 -3.5
    endloop
  endfacet
  facet normal 0.92388 -0.382683 0
    outer loop
      vertex 30.7843 28.2843 3.5
      vertex 30.052 26.5165 3.5
      vertex 30.7843 28.2843 -3.5
    endloop
  endfacet
  facet normal 0.92388 0.382683 0
    outer loop
      vertex 30.7843 28.2843 -3.5
      vertex 30.052 30.052 -3.5
      vertex 30.052 30.052 3.5
    endloop
  endfacet
  facet normal 0.92388 0.382683 0
    outer loop
      vertex 30.7843 28.2843 3.5
      vertex 30.7843 28.2843 -3.5
      vertex 30.052 30.052 3.5
    endloop
  endfacet
  facet normal 0.382683 0.92388 0
    outer loop
      vertex 28.2843 30.7843 -3.5
      vertex 28.2843 30.7843 3.5
      vertex 30.052 30.052 -3.5
    endloop
  endfacet
  facet normal 0.382683 0.92388 0
    outer loop
      vertex 30.052 30.052 -3.5
      vertex 28.2843 30.7843 3.5
      vertex 30.052 30.052 3.5
    endloop
  endfacet
  facet normal -0.382683 0.92388 0
    outer loop
      vertex 26.5165 30.052 -3.5
      vertex 26.5165 30.052 3.5
      vertex 28.2843 30.7843 -3.5
    endloop
  endfacet
  facet normal -0.382683 0.92388 0
    outer loop
      vertex 28.2843 30.7843 -3.5
      vertex 26.5165 30.052 3.5
      vertex 28.2843 30.7843 3.5
    endloop
  endfacet
  facet normal -0.707107 0.707107 0
    outer loop
      vertex 12.1922 15.7278 -3.5
      vertex 12.1922 15.7278 3.5
      vertex 26.5165 30.052 -3.5
    endloop
  endfacet
  facet normal -0.707107 0.707107 0
    outer loop
      vertex 26.5165 30.052 -3.5
      vertex 12.1922 15.7278 3.5
      vertex 26.5165 30.052 3.5
    endloop
  endfacet
  facet normal 0.587785 0.809017 0
    outer loop
      vertex 10 17.3205 -3.5
      vertex 10 17.3205 3.5
      vertex 12.1922 15.7278 -3.5
    endloop
  endfacet
  facet normal 0.587785 0.809017 0
    outer loop
      vertex 12.1922 15.7278 -3.5
      vertex 10 17.3205 3.5
      vertex 12.1922 15.7278 3.5
    endloop
  endfacet
  facet normal 0.406737 0.913545 0
    outer loop
      vertex 6.18034 19.0211 -3.5
      vertex 6.18034 19.0211 3.5
      vertex 10 17.3205 -3.5
    endloop
  endfacet
  facet normal 0.406737 0.913545 0
    outer loop
      vertex 10 17.3205 -3.5
      vertex 6.18034 19.0211 3.5
      vertex 10 17.3205 3.5
    endloop
  endfacet
  facet normal 0.207912 0.978148 0
    outer loop
      vertex 2.5 19.8034 -3.5
      vertex 2.5 19.8034 3.5
      vertex 6.18034 19.0211 -3.5
    endloop
  endfacet
  facet normal 0.207912 0.978148 0
    outer loop
      vertex 6.18034 19.0211 -3.5
      vertex 2.5 19.8034 3.5
      vertex 6.18034 19.0211 3.5
    endloop
  endfacet
  facet normal 1 -6.12323e-17 0
    outer loop
      vertex 2.5 19.8034 3.5
      vertex 2.5 19.8034 -3.5
      vertex 2.5 40 -3.5
    endloop
  endfacet
  facet normal 1 -6.12323e-17 0
    outer loop
      vertex 2.5 40 3.5
      vertex 2.5 19.8034 3.5
      vertex 2.5 40 -3.5
    endloop
  endfacet
  facet normal 0.92388 0.382683 0
    outer loop
      vertex 2.5 40 -3.5
      vertex 1.76777 41.7678 -3.5
      vertex 1.76777 41.7678 3.5
    endloop
  endfacet
  facet normal 0.92388 0.382683 0
    outer loop
      vertex 2.5 40 3.5
      vertex 2.5 40 -3.5
      vertex 1.76777 41.7678 3.5
    endloop
  endfacet
  facet normal 0.382683 0.92388 0
    outer loop
      vertex 2.60237e-15 42.5 -3.5
      vertex 2.60237e-15 42.5 3.5
      vertex 1.76777 41.7678 -3.5
    endloop
  endfacet
  facet normal 0.382683 0.92388 0
    outer loop
      vertex 1.76777 41.7678 -3.5
      vertex 2.60237e-15 42.5 3.5
      vertex 1.76777 41.7678 3.5
    endloop
  endfacet
  facet normal -0.382683 0.92388 0
    outer loop
      vertex -1.76777 41.7678 -3.5
      vertex -1.76777 41.7678 3.5
      vertex 2.60237e-15 42.5 -3.5
    endloop
  endfacet
  facet normal -0.382683 0.92388 0
    outer loop
      vertex 2.60237e-15 42.5 -3.5
      vertex -1.76777 41.7678 3.5
      vertex 2.60237e-15 42.5 3.5
    endloop
  endfacet
  facet normal -0.92388 0.382683 0
    outer loop
      vertex -2.5 40 -3.5
      vertex -2.5 40 3.5
      vertex -1.76777 41.7678 -3.5
    endloop
  endfacet
  facet normal -0.92388 0.382683 0
    outer loop
      vertex -1.76777 41.7678 -3.5
      vertex -2.5 40 3.5
      vertex -1.76777 41.7678 3.5
    endloop
  endfacet
  facet normal -1 6.12323e-17 0
    outer loop
      vertex -2.5 19.8034 -3.5
      vertex -2.5 19.8034 3.5
      vertex -2.5 40 -3.5
    endloop
  endfacet
  facet normal -1 6.12323e-17 0
    outer loop
      vertex -2.5 40 -3.5
      vertex -2.5 19.8034 3.5
      vertex -2.5 40 3.5
    endloop
  endfacet
  facet normal -0.207912 0.978148 0
    outer loop
      vertex -6.18034 19.0211 -3.5
      vertex -6.18034 19.0211 3.5
      vertex -2.5 19.8034 -3.5
    endloop
  endfacet
  facet normal -0.207912 0.978148 0
    outer loop
      vertex -2.5 19.8034 -3.5
      vertex -6.18034 19.0211 3.5
      vertex -2.5 19.8034 3.5
    endloop
  endfacet
  facet normal -0.406737 0.913545 0
    outer loop
      vertex -10 17.3205 -3.5
      vertex -10 17.3205 3.5
      vertex -6.18034 19.0211 -3.5
    endloop
  endfacet
  facet normal -0.406737 0.913545 0
    outer loop
      vertex -6.18034 19.0211 -3.5
      vertex -10 17.3205 3.5
      vertex -6.18034 19.0211 3.5
    endloop
  endfacet
  facet normal -0.587785 0.809017 0
    outer loop
      vertex -12.1922 15.7278 -3.5
      vertex -12.1922 15.7278 3.5
      vertex -10 17.3205 -3.5
    endloop
  endfacet
  facet normal -0.587785 0.809017 0
    outer loop
      vertex -10 17.3205 -3.5
      vertex -12.1922 15.7278 3.5
      vertex -10 17.3205 3.5
    endloop
  endfacet
  facet normal 0.707107 0.707107 0
    outer loop
      vertex -12.1922 15.7278 -3.5
      vertex -26.5165 30.052 -3.5
      vertex -26.5165 30.052 3.5
    endloop
  endfacet
  facet normal 0.707107 0.707107 0
    outer loop
      vertex -12.1922 15.7278 3.5
      vertex -12.1922 15.7278 -3.5
      vertex -26.5165 30.052 3.5
    endloop
  endfacet
  facet normal 0.382683 0.92388 0
    outer loop
      vertex -28.2843 30.7843 -3.5
      vertex -28.2843 30.7843 3.5
      vertex -26.5165 30.052 -3.5
    endloop
  endfacet
  facet normal 0.382683 0.92388 0
    outer loop
      vertex -26.5165 30.052 -3.5
      vertex -28.2843 30.7843 3.5
      vertex -26.5165 30.052 3.5
    endloop
  endfacet
  facet normal -0.382683 0.92388 0
    outer loop
      vertex -30.052 30.052 -3.5
      vertex -30.052 30.052 3.5
      vertex -28.2843 30.7843 -3.5
    endloop
  endfacet
  facet normal -0.382683 0.92388 0
    outer loop
      vertex -28.2843 30.7843 -3.5
      vertex -30.052 30.052 3.5
      vertex -28.2843 30.7843 3.5
    endloop
  endfacet
  facet normal -0.92388 0.382683 0
    outer loop
      vertex -30.7843 28.2843 -3.5
      vertex -30.7843 28.2843 3.5
      vertex -30.052 30.052 -3.5
    endloop
  endfacet
  facet normal -0.92388 0.382683 0
    outer loop
      vertex -30.052 30.052 -3.5
      vertex -30.7843 28.2843 3.5
      vertex -30.052 30.052 3.5
    endloop
  endfacet
  facet normal -0.92388 -0.382683 0
    outer loop
      vertex -30.7843 28.2843 -3.5
      vertex -30.052 26.5165 -3.5
      vertex -30.7843 28.2843 3.5
    endloop
  endfacet
  facet normal -0.92388 -0.382683 0
    outer loop
      vertex -30.7843 28.2843 3.5
      vertex -30.052 26.5165 -3.5
      vertex -30.052 26.5165 3.5
    endloop
  endfacet
  facet normal -0.707107 -0.707107 0
    outer loop
      vertex -30.052 26.5165 -3.5
      vertex -15.7591 12.2236 -3.5
      vertex -30.052 26.5165 3.5
    endloop
  endfacet
  facet normal -0.707107 -0.707107 0
    outer loop
      vertex -30.052 26.5165 3.5
      vertex -15.7591 12.2236 -3.5
      vertex -15.7591 12.2236 3.5
    endloop
  endfacet
  facet normal -0.743145 0.669131 0
    outer loop
      vertex -16.1803 11.7557 -3.5
      vertex -16.1803 11.7557 3.5
      vertex -15.7591 12.2236 -3.5
    endloop
  endfacet
  facet normal -0.743145 0.669131 0
    outer loop
      vertex -15.7591 12.2236 -3.5
      vertex -16.1803 11.7557 3.5
      vertex -15.7591 12.2236 3.5
    endloop
  endfacet
  facet normal -0.866025 0.5 0
    outer loop
      vertex -18.2709 8.13473 -3.5
      vertex -18.2709 8.13473 3.5
      vertex -16.1803 11.7557 -3.5
    endloop
  endfacet
  facet normal -0.866025 0.5 0
    outer loop
      vertex -16.1803 11.7557 -3.5
      vertex -18.2709 8.13473 3.5
      vertex -16.1803 11.7557 3.5
    endloop
  endfacet
  facet normal -0.951057 0.309017 0
    outer loop
      vertex -19.563 4.15823 -3.5
      vertex -19.563 4.15823 3.5
      vertex -18.2709 8.13473 -3.5
    endloop
  endfacet
  facet normal -0.951057 0.309017 0
    outer loop
      vertex -18.2709 8.13473 -3.5
      vertex -19.563 4.15823 3.5
      vertex -18.2709 8.13473 3.5
    endloop
  endfacet
  facet normal -0.994522 0.104528 0
    outer loop
      vertex -19.7372 2.5 -3.5
      vertex -19.7372 2.5 3.5
      vertex -19.563 4.15823 -3.5
    endloop
  endfacet
  facet normal -0.994522 0.104528 0
    outer loop
      vertex -19.563 4.15823 -3.5
      vertex -19.7372 2.5 3.5
      vertex -19.563 4.15823 3.5
    endloop
  endfacet
  facet normal 1.22465e-16 1 0
    outer loop
      vertex -40 2.5 -3.5
      vertex -40 2.5 3.5
      vertex -19.7372 2.5 -3.5
    endloop
  endfacet
  facet normal 1.22465e-16 1 0
    outer loop
      vertex -19.7372 2.5 -3.5
      vertex -40 2.5 3.5
      vertex -19.7372 2.5 3.5
    endloop
  endfacet
  facet normal -0.382683 0.92388 0
    outer loop
      vertex -41.7678 1.76777 -3.5
      vertex -41.7678 1.76777 3.5
      vertex -40 2.5 -3.5
    endloop
  endfacet
  facet normal -0.382683 0.92388 0
    outer loop
      vertex -40 2.5 -3.5
      vertex -41.7678 1.76777 3.5
      vertex -40 2.5 3.5
    endloop
  endfacet
  facet normal 1 0 0
    outer loop
      vertex -1.80194 0.867767 -3.5
      vertex -1.80194 0.867767 3.5
      vertex -1.80194 -0.867767 3.5
    endloop
  endfacet
  facet normal 1 0 0
    outer loop
      vertex -1.80194 -0.867767 -3.5
      vertex -1.80194 0.867767 -3.5
      vertex -1.80194 -0.867767 3.5
    endloop
  endfacet
  facet normal 0.62349 -0.781831 0
    outer loop
      vertex -0.445042 1.94986 -3.5
      vertex -0.445042 1.94986 3.5
      vertex -1.80194 0.867767 3.5
    endloop
  endfacet
  facet normal 0.62349 -0.781831 0
    outer loop
      vertex -1.80194 0.867767 -3.5
      vertex -0.445042 1.94986 -3.5
      vertex -1.80194 0.867767 3.5
    endloop
  endfacet
  facet normal -0.222521 -0.974928 0
    outer loop
      vertex 1.24698 1.56366 -3.5
      vertex 1.24698 1.56366 3.5
      vertex -0.445042 1.94986 3.5
    endloop
  endfacet
  facet normal -0.222521 -0.974928 0
    outer loop
      vertex -0.445042 1.94986 -3.5
      vertex 1.24698 1.56366 -3.5
      vertex -0.445042 1.94986 3.5
    endloop
  endfacet
  facet normal -0.900969 -0.433884 0
    outer loop
      vertex 2 0 3.5
      vertex 1.24698 1.56366 3.5
      vertex 2 0 -3.5
    endloop
  endfacet
  facet normal -0.900969 -0.433884 0
    outer loop
      vertex 2 0 -3.5
      vertex 1.24698 1.56366 3.5
      vertex 1.24698 1.56366 -3.5
    endloop
  endfacet
  facet normal -0.900969 0.433884 0
    outer loop
      vertex 2 0 3.5
      vertex 2 0 -3.5
      vertex 1.24698 -1.56366 3.5
    endloop
  endfacet
  facet normal -0.900969 0.433884 0
    outer loop
      vertex 1.24698 -1.56366 3.5
      vertex 2 0 -3.5
      vertex 1.24698 -1.56366 -3.5
    endloop
  endfacet
  facet normal -0.222521 0.974928 0
    outer loop
      vertex 1.24698 -1.56366 3.5
      vertex 1.24698 -1.56366 -3.5
      vertex -0.445042 -1.94986 3.5
    endloop
  endfacet
  facet normal -0.222521 0.974928 0
    outer loop
      vertex -0.445042 -1.94986 3.5
      vertex 1.24698 -1.56366 -3.5
      vertex -0.445042 -1.94986 -3.5
    endloop
  endfacet
  facet normal 0.62349 0.781831 0
    outer loop
      vertex -0.445042 -1.94986 3.5
      vertex -0.445042 -1.94986 -3.5
      vertex -1.80194 -0.867767 3.5
    endloop
  endfacet
  facet normal 0.62349 0.781831 0
    outer loop
      vertex -1.80194 -0.867767 3.5
      vertex -0.445042 -1.94986 -3.5
      vertex -1.80194 -0.867767 -3.5
    endloop
  endfacet
  facet normal 0 0 1
    outer loop
      vertex -41.7678 1.76777 3.5
      vertex -42.5 5.20475e-15 3.5
      vertex -41.7678 -1.76777 3.5
    endloop
  endfacet
  facet normal 0 0 1
    outer loop
      vertex -19.7372 -2.5 3.5
      vertex -41.7678 1.76777 3.5
      vertex -40 -2.5 3.5
    endloop
  endfacet
  facet normal 0 0 1
    outer loop
      vertex -40 -2.5 3.5
      vertex -41.7678 1.76777 3.5
      vertex -41.7678 -1.76777 3.5
    endloop
  endfacet
  facet normal 0 0 1
    outer loop
      vertex 18.2709 -8.13473 3.5
      vertex -41.7678 1.76777 3.5
      vertex -19.7372 -2.5 3.5
    endloop
  endfacet
  facet normal 0 0 1
    outer loop
      vertex -18.2709 -8.13473 3.5
      vertex -19.7372 -2.5 3.5
      vertex -19.563 -4.15823 3.5
    endloop
  endfacet
  facet normal 0 0 1
    outer loop
      vertex -16.1803 -11.7557 3.5
      vertex -19.7372 -2.5 3.5
      vertex -18.2709 -8.13473 3.5
    endloop
  endfacet
  facet normal 0 0 1
    outer loop
      vertex -15.7591 -12.2236 3.5
      vertex -19.7372 -2.5 3.5
      vertex -16.1803 -11.7557 3.5
    endloop
  endfacet
  facet normal 0 0 1
    outer loop
      vertex -12.1922 -15.7278 3.5
      vertex -19.7372 -2.5 3.5
      vertex -15.7591 -12.2236 3.5
    endloop
  endfacet
  facet normal 0 0 1
    outer loop
      vertex -30.7843 -28.2843 3.5
      vertex -15.7591 -12.2236 3.5
      vertex -30.052 -26.5165 3.5
    endloop
  endfacet
  facet normal 0 0 1
    outer loop
      vertex -30.052 -30.052 3.5
      vertex -15.7591 -12.2236 3.5
      vertex -30.7843 -28.2843 3.5
    endloop
  endfacet
  facet normal 0 0 1
    outer loop
      vertex -28.2843 -30.7843 3.5
      vertex -15.7591 -12.2236 3.5
      vertex -30.052 -30.052 3.5
    endloop
  endfacet
  facet normal 0 0 1
    outer loop
      vertex -26.5165 -30.052 3.5
      vertex -15.7591 -12.2236 3.5
      vertex -28.2843 -30.7843 3.5
    endloop
  endfacet
  facet normal 0 0 1
    outer loop
      vertex -12.1922 -15.7278 3.5
      vertex -15.7591 -12.2236 3.5
      vertex -26.5165 -30.052 3.5
    endloop
  endfacet
  facet normal 0 0 1
    outer loop
      vertex -10 -17.3205 3.5
      vertex -19.7372 -2.5 3.5
      vertex -12.1922 -15.7278 3.5
    endloop
  endfacet
  facet normal 0 0 1
    outer loop
      vertex -6.18034 -19.0211 3.5
      vertex -19.7372 -2.5 3.5
      vertex -10 -17.3205 3.5
    endloop
  endfacet
  facet normal 0 0 1
    outer loop
      vertex -2.5 -19.8034 3.5
      vertex -19.7372 -2.5 3.5
      vertex -6.18034 -19.0211 3.5
    endloop
  endfacet
  facet normal 0 0 1
    outer loop
      vertex 2.5 -19.8034 3.5
      vertex -19.7372 -2.5 3.5
      vertex -2.5 -19.8034 3.5
    endloop
  endfacet
  facet normal 0 0 1
    outer loop
      vertex -1.76777 -41.7678 3.5
      vertex -2.5 -19.8034 3.5
      vertex -2.5 -40 3.5
    endloop
  endfacet
  facet normal 0 0 1
    outer loop
      vertex -7.80712e-15 -42.5 3.5
      vertex -2.5 -19.8034 3.5
      vertex -1.76777 -41.7678 3.5
    endloop
  endfacet
  facet normal 0 0 1
    outer loop
      vertex 1.76777 -41.7678 3.5
      vertex -2.5 -19.8034 3.5
      vertex -7.80712e-15 -42.5 3.5
    endloop
  endfacet
  facet normal 0 0 1
    outer loop
      vertex 2.5 -40 3.5
      vertex -2.5 -19.8034 3.5
      vertex 1.76777 -41.7678 3.5
    endloop
  endfacet
  facet normal 0 0 1
    outer loop
      vertex 2.5 -19.8034 3.5
      vertex -2.5 -19.8034 3.5
      vertex 2.5 -40 3.5
    endloop
  endfacet
  facet normal 0 0 1
    outer loop
      vertex 6.18034 -19.0211 3.5
      vertex -19.7372 -2.5 3.5
      vertex 2.5 -19.8034 3.5
    endloop
  endfacet
  facet normal 0 0 1
    outer loop
      vertex 10 -17.3205 3.5
      vertex -19.7372 -2.5 3.5
      vertex 6.18034 -19.0211 3.5
    endloop
  endfacet
  facet normal 0 0 1
    outer loop
      vertex 12.1922 -15.7278 3.5
      vertex -19.7372 -2.5 3.5
      vertex 10 -17.3205 3.5
    endloop
  endfacet
  facet normal 0 0 1
    outer loop
      vertex 15.7591 -12.2236 3.5
      vertex -19.7372 -2.5 3.5
      vertex 12.1922 -15.7278 3.5
    endloop
  endfacet
  facet normal 0 0 1
    outer loop
      vertex 28.2843 -30.7843 3.5
      vertex 12.1922 -15.7278 3.5
      vertex 26.5165 -30.052 3.5
    endloop
  endfacet
  facet normal 0 0 1
    outer loop
      vertex 30.052 -30.052 3.5
      vertex 12.1922 -15.7278 3.5
      vertex 28.2843 -30.7843 3.5
    endloop
  endfacet
  facet normal 0 0 1
    outer loop
      vertex 30.7843 -28.2843 3.5
      vertex 12.1922 -15.7278 3.5
      vertex 30.052 -30.052 3.5
    endloop
  endfacet
  facet normal 0 0 1
    outer loop
      vertex 30.052 -26.5165 3.5
      vertex 12.1922 -15.7278 3.5
      vertex 30.7843 -28.2843 3.5
    endloop
  endfacet
  facet normal 0 0 1
    outer loop
      vertex 15.7591 -12.2236 3.5
      vertex 12.1922 -15.7278 3.5
      vertex 30.052 -26.5165 3.5
    endloop
  endfacet
  facet normal 0 0 1
    outer loop
      vertex 16.1803 -11.7557 3.5
      vertex -19.7372 -2.5 3.5
      vertex 15.7591 -12.2236 3.5
    endloop
  endfacet
  facet normal 0 0 1
    outer loop
      vertex 18.2709 -8.13473 3.5
      vertex -19.7372 -2.5 3.5
      vertex 16.1803 -11.7557 3.5
    endloop
  endfacet
  facet normal 0 0 1
    outer loop
      vertex 19.563 -4.15823 3.5
      vertex -41.7678 1.76777 3.5
      vertex 18.2709 -8.13473 3.5
    endloop
  endfacet
  facet normal 0 0 1
    outer loop
      vertex -0.445042 -1.94986 3.5
      vertex -41.7678 1.76777 3.5
      vertex 19.563 -4.15823 3.5
    endloop
  endfacet
  facet normal 0 0 1
    outer loop
      vertex 2 0 3.5
      vertex 40 -2.5 3.5
      vertex 41.7678 -1.76777 3.5
    endloop
  endfacet
  facet normal 0 0 1
    outer loop
      vertex 2 0 3.5
      vertex 1.24698 -1.56366 3.5
      vertex 19.7372 -2.5 3.5
    endloop
  endfacet
  facet normal 0 0 1
    outer loop
      vertex 1.24698 1.56366 3.5
      vertex 2 0 3.5
      vertex 41.7678 -1.76777 3.5
    endloop
  endfacet
  facet normal 0 0 1
    outer loop
      vertex -18.2709 8.13473 3.5
      vertex 15.7591 12.2236 3.5
      vertex 12.1922 15.7278 3.5
    endloop
  endfacet
  facet normal 0 0 1
    outer loop
      vertex -18.2709 8.13473 3.5
      vertex 16.1803 11.7557 3.5
      vertex 15.7591 12.2236 3.5
    endloop
  endfacet
  facet normal 0 0 1
    outer loop
      vertex 19.7372 2.5 3.5
      vertex -41.7678 1.76777 3.5
      vertex 40 2.5 3.5
    endloop
  endfacet
  facet normal 0 0 1
    outer loop
      vertex -19.7372 2.5 3.5
      vertex -41.7678 1.76777 3.5
      vertex 19.7372 2.5 3.5
    endloop
  endfacet
  facet normal 0 0 1
    outer loop
      vertex -19.563 4.15823 3.5
      vertex 19.563 4.15823 3.5
      vertex 18.2709 8.13473 3.5
    endloop
  endfacet
  facet normal 0 0 1
    outer loop
      vertex -19.563 4.15823 3.5
      vertex -19.7372 2.5 3.5
      vertex 19.563 4.15823 3.5
    endloop
  endfacet
  facet normal 0 0 1
    outer loop
      vertex -18.2709 8.13473 3.5
      vertex -19.563 4.15823 3.5
      vertex 16.1803 11.7557 3.5
    endloop
  endfacet
  facet normal 0 0 1
    outer loop
      vertex -12.1922 15.7278 3.5
      vertex -15.7591 12.2236 3.5
      vertex 2.5 19.8034 3.5
    endloop
  endfacet
  facet normal 0 0 1
    outer loop
      vertex -1.76777 41.7678 3.5
      vertex -2.5 40 3.5
      vertex 2.60237e-15 42.5 3.5
    endloop
  endfacet
  facet normal 0 0 1
    outer loop
      vertex 28.2843 30.7843 3.5
      vertex 26.5165 30.052 3.5
      vertex 30.052 30.052 3.5
    endloop
  endfacet
  facet normal 0 0 1
    outer loop
      vertex 30.052 26.5165 3.5
      vertex 12.1922 15.7278 3.5
      vertex 15.7591 12.2236 3.5
    endloop
  endfacet
  facet normal 0 0 1
    outer loop
      vertex -16.1803 11.7557 3.5
      vertex -18.2709 8.13473 3.5
      vertex 10 17.3205 3.5
    endloop
  endfacet
  facet normal 0 0 1
    outer loop
      vertex 2.5 19.8034 3.5
      vertex 2.5 40 3.5
      vertex -2.5 19.8034 3.5
    endloop
  endfacet
  facet normal 0 0 1
    outer loop
      vertex -16.1803 11.7557 3.5
      vertex 10 17.3205 3.5
      vertex 6.18034 19.0211 3.5
    endloop
  endfacet
  facet normal 0 0 1
    outer loop
      vertex -12.1922 15.7278 3.5
      vertex 2.5 19.8034 3.5
      vertex -2.5 19.8034 3.5
    endloop
  endfacet
  facet normal 0 0 1
    outer loop
      vertex 2.60237e-15 42.5 3.5
      vertex -2.5 40 3.5
      vertex 1.76777 41.7678 3.5
    endloop
  endfacet
  facet normal 0 0 1
    outer loop
      vertex -30.7843 28.2843 3.5
      vertex -30.052 26.5165 3.5
      vertex -28.2843 30.7843 3.5
    endloop
  endfacet
  facet normal 0 0 1
    outer loop
      vertex -30.7843 28.2843 3.5
      vertex -28.2843 30.7843 3.5
      vertex -30.052 30.052 3.5
    endloop
  endfacet
  facet normal 0 0 1
    outer loop
      vertex -19.7372 2.5 3.5
      vertex -40 2.5 3.5
      vertex -41.7678 1.76777 3.5
    endloop
  endfacet
  facet normal 0 0 1
    outer loop
      vertex -30.052 26.5165 3.5
      vertex -12.1922 15.7278 3.5
      vertex -26.5165 30.052 3.5
    endloop
  endfacet
  facet normal 0 0 1
    outer loop
      vertex -10 17.3205 3.5
      vertex -12.1922 15.7278 3.5
      vertex -6.18034 19.0211 3.5
    endloop
  endfacet
  facet normal 0 0 1
    outer loop
      vertex -6.18034 19.0211 3.5
      vertex -12.1922 15.7278 3.5
      vertex -2.5 19.8034 3.5
    endloop
  endfacet
  facet normal 0 0 1
    outer loop
      vertex -28.2843 30.7843 3.5
      vertex -30.052 26.5165 3.5
      vertex -26.5165 30.052 3.5
    endloop
  endfacet
  facet normal 0 0 1
    outer loop
      vertex -0.445042 -1.94986 3.5
      vertex -1.80194 -0.867767 3.5
      vertex -41.7678 1.76777 3.5
    endloop
  endfacet
  facet normal 0 0 1
    outer loop
      vertex -30.052 26.5165 3.5
      vertex -15.7591 12.2236 3.5
      vertex -12.1922 15.7278 3.5
    endloop
  endfacet
  facet normal 0 0 1
    outer loop
      vertex 10 17.3205 3.5
      vertex -18.2709 8.13473 3.5
      vertex 12.1922 15.7278 3.5
    endloop
  endfacet
  facet normal 0 0 1
    outer loop
      vertex -1.80194 -0.867767 3.5
      vertex -1.80194 0.867767 3.5
      vertex -41.7678 1.76777 3.5
    endloop
  endfacet
  facet normal 0 0 1
    outer loop
      vertex 16.1803 11.7557 3.5
      vertex -19.563 4.15823 3.5
      vertex 18.2709 8.13473 3.5
    endloop
  endfacet
  facet normal 0 0 1
    outer loop
      vertex 19.563 4.15823 3.5
      vertex -19.7372 2.5 3.5
      vertex 19.7372 2.5 3.5
    endloop
  endfacet
  facet normal 0 0 1
    outer loop
      vertex -2.5 40 3.5
      vertex -2.5 19.8034 3.5
      vertex 2.5 40 3.5
    endloop
  endfacet
  facet normal 0 0 1
    outer loop
      vertex -2.5 40 3.5
      vertex 2.5 40 3.5
      vertex 1.76777 41.7678 3.5
    endloop
  endfacet
  facet normal 0 0 1
    outer loop
      vertex -1.80194 0.867767 3.5
      vertex -0.445042 1.94986 3.5
      vertex -41.7678 1.76777 3.5
    endloop
  endfacet
  facet normal 0 0 1
    outer loop
      vertex 2 0 3.5
      vertex 19.7372 -2.5 3.5
      vertex 40 -2.5 3.5
    endloop
  endfacet
  facet normal 0 0 1
    outer loop
      vertex 40 2.5 3.5
      vertex -0.445042 1.94986 3.5
      vertex 41.7678 1.76777 3.5
    endloop
  endfacet
  facet normal 0 0 1
    outer loop
      vertex 40 2.5 3.5
      vertex -41.7678 1.76777 3.5
      vertex -0.445042 1.94986 3.5
    endloop
  endfacet
  facet normal 0 0 1
    outer loop
      vertex 41.7678 1.76777 3.5
      vertex 1.24698 1.56366 3.5
      vertex 42.5 -1.04095e-14 3.5
    endloop
  endfacet
  facet normal 0 0 1
    outer loop
      vertex 1.24698 1.56366 3.5
      vertex 41.7678 -1.76777 3.5
      vertex 42.5 -1.04095e-14 3.5
    endloop
  endfacet
  facet normal 0 0 1
    outer loop
      vertex -0.445042 1.94986 3.5
      vertex 1.24698 1.56366 3.5
      vertex 41.7678 1.76777 3.5
    endloop
  endfacet
  facet normal 0 0 1
    outer loop
      vertex 19.7372 -2.5 3.5
      vertex 1.24698 -1.56366 3.5
      vertex 19.563 -4.15823 3.5
    endloop
  endfacet
  facet normal 0 0 1
    outer loop
      vertex 1.24698 -1.56366 3.5
      vertex -0.445042 -1.94986 3.5
      vertex 19.563 -4.15823 3.5
    endloop
  endfacet
  facet normal 0 0 1
    outer loop
      vertex 6.18034 19.0211 3.5
      vertex -15.7591 12.2236 3.5
      vertex -16.1803 11.7557 3.5
    endloop
  endfacet
  facet normal 0 0 1
    outer loop
      vertex 6.18034 19.0211 3.5
      vertex 2.5 19.8034 3.5
      vertex -15.7591 12.2236 3.5
    endloop
  endfacet
  facet normal 0 0 1
    outer loop
      vertex 26.5165 30.052 3.5
      vertex 30.7843 28.2843 3.5
      vertex 30.052 30.052 3.5
    endloop
  endfacet
  facet normal 0 0 1
    outer loop
      vertex 26.5165 30.052 3.5
      vertex 30.052 26.5165 3.5
      vertex 30.7843 28.2843 3.5
    endloop
  endfacet
  facet normal 0 0 1
    outer loop
      vertex 26.5165 30.052 3.5
      vertex 12.1922 15.7278 3.5
      vertex 30.052 26.5165 3.5
    endloop
  endfacet
endsolid OpenSCAD_Model
